<svg version="1.1" id="Layer_1" xmlns="http://www.w3.org/2000/svg" xmlns:xlink="http://www.w3.org/1999/xlink" x="0px" y="0px" viewBox="0 0 175.6 55.2" style="enable-background:new 0 0 175.6 55.2;" xml:space="preserve">
 <style type="text/css">
  .st0{fill-rule:evenodd;clip-rule:evenodd;fill:#15633F;}
	.st1{fill-rule:evenodd;clip-rule:evenodd;fill:#EB6516;}
 </style>
 <g>
  <path class="st0" d="M153.6,29.8l-0.5-0.6c-1.6,0.8-5.7,1.7-7.9,1.9v0.8c3.4,0.3,2.3,7.4,2.3,10.9c0,1.8,0.2,5.1-0.1,6.7
		c-0.5,2.7-0.3,3-2.5,4.1l0.3,1.1l4.6-0.6c1.5-0.1,5.8,1.9,5.8-0.3c0-0.1-2.3-1.3-2.3-3.9l-0.1-12.3L153.6,29.8z M122.8,39.8
		c-0.6,2.4-1.7,5.2-2.5,7.6c-0.4,1.2-0.9,2.3-1.5,3.5c-0.3,0.5-2,3-2,3v0.3c0,0.7,1,0.2,1.8,0.1c0.8,0,1.2-0.1,2.2-0.1h0.7l3.2,0.4
		l0.2-1.1c-1.8-0.4-3-1.7-3-3.9c0-1.8,0.6-4.2,1.1-5.5c0.5-1.2,0.5-1.1,1.8-1.6c0.7-0.2,1.9-0.5,2.7-0.5h1.2c1.3,0,2,0.2,3.1,0.4
		c1.6,0.3,1.3,0.2,1.8,1.7c0.5,1.6,1.2,3.8,1.2,5.8v0.4c0,1.3-1.5,3-2.6,3.2l0.1,0.9l4.8-0.7l1.6,0l5.3,0.6l0.3-0.8
		c-3.3-1.7-5.5-12.3-7-16.6c-1-3-1.6-6.3-2.5-9.3c-0.5-1.5-0.9-3.1-1.3-4.6c-0.3-1.3-0.3-3.9-1.4-4.4c-1.1,0.7-1.4,1.2-2.8,1.9
		c-0.7,0.3-3,1-3,1.7c0,0.3,0.9,1.3,0.9,2c0,0.9-1.9,6.7-2.3,7.8C124.2,34.7,123.4,37.2,122.8,39.8z M128.1,26.7
		c0.4,0.3,2.1,6,2.4,7c0.4,1.5,1.5,6.1,2.1,7.2l-2.8-0.3l-3,0.1c-1.3,0-2,0.5-3,0.5L128.1,26.7z M165.4,29.9l-0.6-0.7
		c-0.8,0.4-2.7,1-3.7,1.2c-0.6,0.1-4.1,0.4-4.1,0.9v0.7c1.9,0.2,2.4,1.3,2.4,3.4c0,1.9,0.1,3.5,0.1,5.5v7c0,2.4-0.6,5.1-2.6,5.5v1.1
		l3.9-0.6l1.9,0.1l4,0.5c0.2,0.1,0.5-0.7,0.5-0.9c-1.5-0.3-2.6-2.5-2.6-4.3V42c0-3.5,0.7-8.1,4.2-8.1c1.6,0,1.4,3.2,3.2,3.2h0.8
		c1.2,0,2.6-1.6,2.6-3v-0.4c0-2-1.9-3.2-3.9-3.2h-0.5c-1.6,0-2.6,0.7-3.6,1.4c-1.2,0.8-1.7,2.1-2.4,2.5L165.4,29.9z M107.3,27.5
		l-0.1,0.1l-0.1,0.1l0.1,11.6c0-2.2,1.4-6,2-7.7c1-2.5,2.1-4.2,3.5-6.2c0.9-1.4,3.5-4,4.9-4.8c1.1-0.7,1.7-1.2,3-1.8
		c0.8-0.4,2.8-1.2,3.3-1.5c-5.6,0-6.9,1-10.2,3.3C112.4,21.3,107.7,26.1,107.3,27.5z M150.3,26.9c1.5,0,3.1-1,3.1-2.4v-0.7
		c0-1.1-1.5-2.2-2.7-2.2H150c-1.5,0-3.2,1-3.2,2.6v0.5c0,1.1,1.4,2.2,2.6,2.2H150.3z M107,16l0.1,4.4c0.5-2.3,4-5.5,5.8-6.9
		c0.9-0.7,2.9-1.8,4-2.3c0.7-0.3,4.5-1.6,4.8-1.7c-0.3-0.1-0.3-0.1-0.7-0.1H120C115.2,9.4,108.9,13.2,107,16z M107,5.9l0.1,3.6
		c1.3-2.4,2.9-4.6,5.3-6c1.2-0.7,2.2-1.4,3.6-2c0.6-0.3,3.9-1.3,4.1-1.5c-3.5,0-5.5,0.5-7.9,1.7C110.7,2.5,108,4.5,107,5.9z">
  </path>
  <path class="st1" d="M21.9,18.9c-0.7-0.2-3.1,0.8-4.1,1c-0.8,0.2-1.5,0.5-2.2,0.6c-0.5,0.1-2,0.1-2,0.7v0.5c2.9,0,2.7,3.8,2.7,6.7
		c0,3.1,0.1,5.9,0.1,9.2c0,3.1,0,6,0,9c0,1.9-0.1,2.7-0.4,4.3c-0.1,0.6-0.3,1.2-0.5,1.8c-0.3,0.6-0.9,1-0.9,1.4v0.3
		c0,0.8,4.1,0.9,5.1,0.9c8.1,0,16.4-6.5,16.4-14.1v-2.8c0-3.6-3-7.4-6.7-7.4h-0.7c-1.8,0-3,0.6-4.1,1.3c-1.2,0.8-1.9,2.2-2.7,2.7
		L21.9,18.9z M21.7,42.7c0-3.3,0.7-8.2,3.8-8.2h0.9c2.4,0,3.8,3.2,3.8,5.8V43c0,3.9-2.5,10.2-6.2,10.2c-2.8,0-2.3-5.6-2.3-8.6V42.7z
		 M68.6,34.5c0-0.9-0.1-2.4,0-3.2c0.2-1.6,0.4-1.3-0.3-2.5c-1.2,0.8-5.9,2-8.1,2v0.7c0,1.2,2.7-1.1,2.7,4.7v12.7
		c0,2.2-1.3,3.9-2.8,4.7l0.3,0.9c0.9-0.2,3.9-0.7,5.1-0.5l5.3,0.5l0-0.6c0-0.2-1.8-1.2-2.2-3.4c-0.3-1.6-0.4-3-0.4-5v-0.4
		c0-4.9,0-11.3,4.9-11.3h0.1c2.2,0,2.6,6.1,2.6,8.8v4.7c0,2.9-0.4,5.8-2.7,6.3l0.2,0.9l3.7-0.5l4.2,0.1c1.8,0,2.6,0.9,2.7-0.8
		c-2-0.5-3-2.6-3-5.1v-2.4c0-4.8-0.5-11.7,4.2-11.7h0.4c2.4,0,3.1,3.4,3.1,5.9v10.2c0,1.8-1.3,3.1-2.8,3.2l0.2,1.1l5.2-0.5l0.5,0.1
		l4.6,0.4c0-0.4,0.1-0.5,0.1-0.9c0-0.4-2.6-0.7-2.6-4.2v-3.6c0-6.2,1.8-15.5-5-15.5c-2.3,0-3.3,0.5-4.7,1.3c-1.6,0.9-2.2,2.3-3.1,3
		c-0.9-1.8-2-4.4-4.6-4.4h-1.1c-1.6,0-3.2,0.8-4,1.5C70.6,32.4,69,34.2,68.6,34.5z M0.7,21c0.8,0.2,1.8,1,2.1,1.8
		c0.5,1.1,0.6,1.7,0.6,3.2c0,2.6,0.1,4.8,0.1,7.4v12.3c0,1.7-0.2,3.8-0.6,5.2C2.4,52.7,1.4,53,0,53.7l0.3,0.8l5.9-0.6L6.3,54
		l5.9,0.5l0.2-0.8c-3.2-1.7-3-3.1-3.1-7.8c-0.1-3.7-0.1-7-0.1-10.8v-9c0-2.7,0.6-4.6,2.7-5.1l-0.2-1.1l-4.1,0.8l-3.3-0.1
		c-1.6,0-2.5-0.5-3.6-0.5L0.7,21z M47.9,54.7c6.1,0,10.5-7.1,10.5-13.7c0-5.6-2.9-10.2-8.5-10.2c-7.2,0-11.9,6.9-11.9,14.1v0.7
		c0,4.9,2.9,9.2,7.7,9.2H47.9z M43,41.8v-1.3c0-3.1,1.2-8.2,4-8.2h1.2c3.3,0,4.9,6.9,4.9,10.6v4.3c0,2.9-1.5,6.3-4.4,6.3h-0.3
		C44.6,53.5,43,45.9,43,41.8z M107.2,20.5L107,16c-0.8-0.6-1.7-1.8-2.5-2.4c-0.8-0.7-2.1-1.5-3-2c-1.7-1-5.1-2.2-7.8-2.2h-0.8
		c-0.4,0-0.4,0.1-0.7,0.1c0.4,0.3,3.8,1.2,4.8,1.7c1.5,0.7,2.8,1.4,4.1,2.4c1.9,1.4,5.2,4.6,5.8,7.1L107.2,20.5z M107.2,39.3
		L107,27.7l0.1-0.1l0.1-0.1l-0.1,0.1l-0.1,0.1c-0.3-0.2-2.5-3.1-2.8-3.6c-0.8-1.1-2.2-2.3-3.3-3.2c-2.1-1.5-5.6-3.9-9.1-3.9l-0.3,0
		L90,17.2c0.7,0.5,2.4,0.9,3.3,1.5c1.1,0.7,2,1.2,3.1,1.9c1.4,0.9,4,3.6,5,5c1.5,2.2,2.5,3.7,3.5,6.4c0.7,1.7,1.9,5.8,2,8
		L107.2,39.3z M107.2,9.6L107,5.9c-0.9-0.6-1.5-1.6-2.4-2.3c-0.9-0.7-1.8-1.3-2.9-1.9C99.5,0.5,97.1,0,93.8,0
		c0.2,0.3,3.4,1.2,4.1,1.6c1.5,0.7,2.5,1.2,3.7,2.1c1.6,1.1,4.8,4.1,5.3,6.2L107.2,9.6z">
  </path>
 </g>
</svg>